<svg width="512" height="512" viewBox="0 0 512 512" fill="none" xmlns="http://www.w3.org/2000/svg">
  <rect width="512" height="512" rx="92" fill="#D9D9D9"/>
  <circle cx="256" cy="228" r="70" stroke="#FFB300" stroke-width="10"/>
  <path d="M256 88V118" stroke="#FFB300" stroke-width="10" stroke-linecap="round"/>
  <path d="M396 228H426" stroke="#FFB300" stroke-width="10" stroke-linecap="round"/>
  <path d="M86 228H116" stroke="#FFB300" stroke-width="10" stroke-linecap="round"/>
  <path d="M355 129L376 108" stroke="#FFB300" stroke-width="10" stroke-linecap="round"/>
  <path d="M136 348L157 327" stroke="#FFB300" stroke-width="10" stroke-linecap="round"/>
  <path d="M355 327L376 348" stroke="#FFB300" stroke-width="10" stroke-linecap="round"/>
  <path d="M136 108L157 129" stroke="#FFB300" stroke-width="10" stroke-linecap="round"/>
  <path d="M410 166L436 151" stroke="#FFB300" stroke-width="10" stroke-linecap="round"/>
  <path d="M76 305L102 290" stroke="#FFB300" stroke-width="10" stroke-linecap="round"/>
  <path d="M102 166L76 151" stroke="#FFB300" stroke-width="10" stroke-linecap="round"/>
  <path d="M436 305L410 290" stroke="#FFB300" stroke-width="10" stroke-linecap="round"/>
  <path d="M112 512C130 400 184 354 256 354C328 354 382 400 400 512" stroke="#FFB300" stroke-width="12" stroke-linecap="round"/>
</svg>
